<?xml version="1.0" encoding="UTF-8" standalone="no"?>
<!-- Created with Inkscape (http://www.inkscape.org/) -->

<svg
   xmlns:dc="http://purl.org/dc/elements/1.1/"
   xmlns:cc="http://creativecommons.org/ns#"
   xmlns:rdf="http://www.w3.org/1999/02/22-rdf-syntax-ns#"
   xmlns:svg="http://www.w3.org/2000/svg"
   xmlns="http://www.w3.org/2000/svg"
   xmlns:xlink="http://www.w3.org/1999/xlink"
   xmlns:sodipodi="http://sodipodi.sourceforge.net/DTD/sodipodi-0.dtd"
   xmlns:inkscape="http://www.inkscape.org/namespaces/inkscape"
   id="svg2"
   version="1.1"
   inkscape:version="0.48.1 r9760"
   width="181.0975"
   height="181.39375"
   xml:space="preserve"
   sodipodi:docname="flattr-logo-bw.svg"><metadata
     id="metadata8"><rdf:RDF><cc:Work
         rdf:about=""><dc:format>image/svg+xml</dc:format><dc:type
           rdf:resource="http://purl.org/dc/dcmitype/StillImage" /></cc:Work></rdf:RDF></metadata><defs
     id="defs6"><clipPath
       clipPathUnits="userSpaceOnUse"
       id="clipPath16"><path
         d="m 135.377,382.484 c -34.431,0 -52.004,-19.863 -52.004,-56.949 l 0,0 0,-25.906 0,-51.899 33.728,33.817 0,39.523 c 0,15.364 4.065,25.141 17.702,27.336 l 0,0 c 4.764,0.933 14.679,0.606 20.983,0.606 l 0,0 0,-23.467 c 0,-0.214 0.029,-0.596 0.084,-0.792 l 0,0 c 0.264,-0.95 1.122,-1.646 2.138,-1.648 l 0,0 c 0.575,-0.001 1.113,0.298 1.668,0.846 l 0,0 58.45,58.524 -39.234,0.009 -43.515,0 z"
         id="path18"
         inkscape:connector-curvature="0" /></clipPath><linearGradient
       x1="0"
       y1="0"
       x2="1"
       y2="0"
       gradientUnits="userSpaceOnUse"
       gradientTransform="matrix(0,134.75244,134.75244,0,150.74951,247.73047)"
       spreadMethod="pad"
       id="linearGradient24"><stop
         style="stop-opacity:1;stop-color:#ea5f29"
         offset="0"
         id="stop26" /><stop
         style="stop-opacity:1;stop-color:#fabd1f"
         offset="1"
         id="stop28" /></linearGradient><clipPath
       clipPathUnits="userSpaceOnUse"
       id="clipPath36"><path
         d="m 194.523,338.305 0,-39.522 c 0,-15.364 -4.066,-25.142 -17.702,-27.337 l 0,0 c -4.764,-0.932 -14.679,-0.605 -20.983,-0.605 l 0,0 0,23.466 c 0,0.213 -0.029,0.596 -0.084,0.792 l 0,0 c -0.264,0.951 -1.121,1.646 -2.138,1.648 l 0,0 c -0.575,0.002 -1.113,-0.298 -1.668,-0.845 l 0,0 -58.45,-58.524 39.234,-0.009 43.515,0 c 34.431,0 52.004,19.863 52.004,56.948 l 0,0 0,25.907 0,51.898 -33.728,-33.817 z"
         id="path38"
         inkscape:connector-curvature="0" /></clipPath><linearGradient
       x1="0"
       y1="0"
       x2="1"
       y2="0"
       gradientUnits="userSpaceOnUse"
       gradientTransform="matrix(0,-134.75195,-134.75195,0,160.87451,372.12109)"
       spreadMethod="pad"
       id="linearGradient44"><stop
         style="stop-opacity:1;stop-color:#abd33c"
         offset="0"
         id="stop46" /><stop
         style="stop-opacity:1;stop-color:#6cb02f"
         offset="1"
         id="stop48" /></linearGradient><clipPath
       clipPathUnits="userSpaceOnUse"
       id="clipPath56"><path
         d="m 0,595.276 841.89,0 L 841.89,0 0,0 0,595.276 z"
         id="path58"
         inkscape:connector-curvature="0" /></clipPath><linearGradient
       inkscape:collect="always"
       xlink:href="#linearGradient24"
       id="linearGradient4099"
       gradientUnits="userSpaceOnUse"
       gradientTransform="matrix(0,134.75244,134.75244,0,150.74951,247.73047)"
       spreadMethod="pad"
       x1="0"
       y1="0"
       x2="1"
       y2="0" /><linearGradient
       inkscape:collect="always"
       xlink:href="#linearGradient44"
       id="linearGradient4101"
       gradientUnits="userSpaceOnUse"
       gradientTransform="matrix(0,-134.75195,-134.75195,0,160.87451,372.12109)"
       spreadMethod="pad"
       x1="0"
       y1="0"
       x2="1"
       y2="0" /></defs><sodipodi:namedview
     pagecolor="#ffffff"
     bordercolor="#666666"
     borderopacity="1"
     objecttolerance="10"
     gridtolerance="10"
     guidetolerance="10"
     inkscape:pageopacity="0"
     inkscape:pageshadow="2"
     inkscape:window-width="1680"
     inkscape:window-height="973"
     id="namedview4"
     showgrid="false"
     inkscape:zoom="0.54736764"
     inkscape:cx="11.514395"
     inkscape:cy="122.99266"
     inkscape:window-x="0"
     inkscape:window-y="24"
     inkscape:window-maximized="1"
     inkscape:current-layer="g4047"
     fit-margin-top="0"
     fit-margin-left="0"
     fit-margin-right="0"
     fit-margin-bottom="0" /><g
     id="g10"
     inkscape:groupmode="layer"
     inkscape:label="flattr-logo"
     transform="matrix(1.25,0,0,-1.25,-435.63252,462.74439)"
     style="display:none"><g
       id="g4035"
       transform="translate(265.13302,-12.288488)"><g
         id="g12"><g
           clip-path="url(#clipPath16)"
           id="g14"><g
             id="g20"><g
               id="g22"><path
                 id="path30"
                 style="fill:url(#linearGradient4099);stroke:none"
                 d="m 135.377,382.484 c -34.431,0 -52.004,-19.863 -52.004,-56.949 l 0,0 0,-25.906 0,-51.899 33.728,33.817 0,39.523 c 0,15.364 4.065,25.141 17.702,27.336 l 0,0 c 4.764,0.933 14.679,0.606 20.983,0.606 l 0,0 0,-23.467 c 0,-0.214 0.029,-0.596 0.084,-0.792 l 0,0 c 0.264,-0.95 1.122,-1.646 2.138,-1.648 l 0,0 c 0.575,-0.001 1.113,0.298 1.668,0.846 l 0,0 58.45,58.524 -39.234,0.009 -43.515,0 z"
                 inkscape:connector-curvature="0" /></g></g></g></g><g
         id="g32"><g
           clip-path="url(#clipPath36)"
           id="g34"><g
             id="g40"><g
               id="g42"><path
                 id="path50"
                 style="fill:url(#linearGradient4101);stroke:none"
                 d="m 194.523,338.305 0,-39.522 c 0,-15.364 -4.066,-25.142 -17.702,-27.337 l 0,0 c -4.764,-0.932 -14.679,-0.605 -20.983,-0.605 l 0,0 0,23.466 c 0,0.213 -0.029,0.596 -0.084,0.792 l 0,0 c -0.264,0.951 -1.121,1.646 -2.138,1.648 l 0,0 c -0.575,0.002 -1.113,-0.298 -1.668,-0.845 l 0,0 -58.45,-58.524 39.234,-0.009 43.515,0 c 34.431,0 52.004,19.863 52.004,56.948 l 0,0 0,25.907 0,51.898 -33.728,-33.817 z"
                 inkscape:connector-curvature="0" /></g></g></g></g></g><g
       id="g52"><g
         id="g54"
         clip-path="url(#clipPath56)"><g
           id="g60"
           transform="translate(500.0391,266.1826)" /><g
           id="g64"
           transform="translate(413.1797,243.7695)" /><g
           id="g68"
           transform="translate(622.29,276.9707)" /><g
           id="g72"
           transform="translate(364.2563,361.6123)" /><g
           id="g76"
           transform="translate(756.458,336.3027)" /><g
           id="g80"
           transform="translate(547.0293,276.9873)" /></g></g></g><g
     transform="matrix(1.25,0,0,-1.25,-435.63252,462.74439)"
     inkscape:label="flattr-logo bw"
     inkscape:groupmode="layer"
     id="g4047"
     style="display:inline"><g
       id="g4049"><g
         id="g4087"
         transform="translate(265.13302,-12.288488)"><g
           style="fill:#000000;fill-opacity:1"
           id="g4051"><g
             style="fill:#000000;fill-opacity:1"
             clip-path="url(#clipPath16)"
             id="g4053"><g
               style="fill:#000000;fill-opacity:1"
               id="g4055"><g
                 style="fill:#000000;fill-opacity:1"
                 id="g4057"><path
                   inkscape:connector-curvature="0"
                   id="path4059"
                   style="fill:#000000;fill-opacity:1;stroke:none"
                   d="m 135.377,382.484 c -34.431,0 -52.004,-19.863 -52.004,-56.949 l 0,0 0,-25.906 0,-51.899 33.728,33.817 0,39.523 c 0,15.364 4.065,25.141 17.702,27.336 l 0,0 c 4.764,0.933 14.679,0.606 20.983,0.606 l 0,0 0,-23.467 c 0,-0.214 0.029,-0.596 0.084,-0.792 l 0,0 c 0.264,-0.95 1.122,-1.646 2.138,-1.648 l 0,0 c 0.575,-0.001 1.113,0.298 1.668,0.846 l 0,0 58.45,58.524 -39.234,0.009 -43.515,0 z" /></g></g></g></g><g
           style="fill:#000000;fill-opacity:1"
           id="g4061"><g
             style="fill:#000000;fill-opacity:1"
             clip-path="url(#clipPath36)"
             id="g4063"><g
               style="fill:#000000;fill-opacity:1"
               id="g4065"><g
                 style="fill:#000000;fill-opacity:1"
                 id="g4067"><path
                   inkscape:connector-curvature="0"
                   id="path4069"
                   style="fill:#000000;fill-opacity:1;stroke:none"
                   d="m 194.523,338.305 0,-39.522 c 0,-15.364 -4.066,-25.142 -17.702,-27.337 l 0,0 c -4.764,-0.932 -14.679,-0.605 -20.983,-0.605 l 0,0 0,23.466 c 0,0.213 -0.029,0.596 -0.084,0.792 l 0,0 c -0.264,0.951 -1.121,1.646 -2.138,1.648 l 0,0 c -0.575,0.002 -1.113,-0.298 -1.668,-0.845 l 0,0 -58.45,-58.524 39.234,-0.009 43.515,0 c 34.431,0 52.004,19.863 52.004,56.948 l 0,0 0,25.907 0,51.898 -33.728,-33.817 z" /></g></g></g></g></g></g><g
       id="g4071"><g
         clip-path="url(#clipPath56)"
         id="g4073"><g
           transform="translate(500.0391,266.1826)"
           id="g4075" /><g
           transform="translate(413.1797,243.7695)"
           id="g4077" /><g
           transform="translate(622.29,276.9707)"
           id="g4079" /><g
           transform="translate(364.2563,361.6123)"
           id="g4081" /><g
           transform="translate(756.458,336.3027)"
           id="g4083" /><g
           transform="translate(547.0293,276.9873)"
           id="g4085" /></g></g></g></svg>