<?xml version="1.0" encoding="utf-8"?>
<!-- Generator: Adobe Illustrator 16.0.0, SVG Export Plug-In . SVG Version: 6.00 Build 0)  -->
<!DOCTYPE svg PUBLIC "-//W3C//DTD SVG 1.1//EN" "http://www.w3.org/Graphics/SVG/1.1/DTD/svg11.dtd">
<svg version="1.1" id="Layer_1" xmlns="http://www.w3.org/2000/svg" xmlns:xlink="http://www.w3.org/1999/xlink" x="0px" y="0px"
	 width="48px" height="48px" viewBox="0 0 48 48" enable-background="new 0 0 48 48" xml:space="preserve">
<g>
	<g>
		<g>
			<path d="M11.844,30.835c-2.019-1.537-3.485-4.359-4.716-6.529C4.73,20.081,6.702,15.09,9.223,11.475
				c2.78-3.988,9.917-3.994,13.907-2.179c1.899,0.864,3.829,1.595,5.517,2.844c1.079,0.799,1.981,0.934,1.047,2.034
				c-2.995,3.525-6.746,6.533-10.2,9.587c-2.727,2.411-5.465,4.815-8.255,7.152c-0.495,0.414,0.216,1.118,0.707,0.707
				c3.977-3.331,7.87-6.77,11.72-10.245c2.113-1.907,4.233-3.826,6.192-5.894c1.213-1.28,2.003-2.205,0.308-3.534
				c-3.126-2.452-7.537-4.568-11.544-4.77c-2.42-0.122-4.584,0.335-6.82,1.216c-2.159,0.852-3.143,2.082-4.483,3.958
				c-2.165,3.031-3.104,8.219-1.472,11.666c1.234,2.607,3.157,5.901,5.493,7.68C11.852,32.089,12.35,31.22,11.844,30.835
				L11.844,30.835z"/>
		</g>
	</g>
	<g>
		<g>
			<path d="M28.972,16.397c0.959-0.065-0.272,1.461-0.505,1.974c-0.158,0.35,0.028,0.731,0.432,0.752
				c1.656,0.085,3.136,0.784,4.775,0.498c-0.188-0.245-0.376-0.489-0.564-0.734c-0.272,0.628-0.594,1.223-0.885,1.842
				c-0.176,0.373,0.111,0.874,0.564,0.734c0.319-0.098,0.639-0.196,0.958-0.295c-0.188-0.245-0.376-0.489-0.564-0.734
				c-0.187,0.337-0.358,0.681-0.516,1.032c-0.151,0.319,0.022,0.773,0.432,0.752c0.792-0.041,1.566-0.18,2.358-0.221
				c-0.167-0.167-0.333-0.333-0.5-0.5c-0.016,0.541-0.323,1.318-0.498,1.856c-0.088,0.271,0.101,0.531,0.35,0.615
				c0.688,0.234,0.631,0.208,1.386,0.239c-0.144-0.251-0.288-0.501-0.432-0.752c-0.369,0.583-0.688,1.133-0.958,1.769
				c-0.176,0.414,0.105,0.814,0.564,0.734c0.788-0.138,1.268-0.442,1.961-0.861c-0.244-0.1-0.489-0.199-0.734-0.299
				c0.07,0.451,0.15,1.008,0.662,1.188c1.064,0.378,1.64-0.107,1.991,1.17c0.427,1.552,1.364,2.298,2.883,2.951
				c0.585,0.252,1.095-0.609,0.504-0.863c-0.713-0.308-1.694-0.59-1.822-1.346c-0.119-0.694-0.617-1.014-0.571-1.732
				c0.091-1.407-2.516-0.561-2.682-1.634c-0.05-0.322-0.481-0.452-0.734-0.299c-0.521,0.368-1.095,0.621-1.723,0.76
				c0.188,0.245,0.376,0.49,0.564,0.734c0.271-0.635,0.589-1.186,0.958-1.768c0.212-0.334-0.068-0.738-0.432-0.752
				c-0.373-0.068-0.747-0.136-1.12-0.203c0.116,0.205,0.233,0.41,0.35,0.615c0.408-1.259,0.502-1.038,0.533-2.122
				c0.008-0.262-0.233-0.514-0.5-0.5c-0.792,0.041-1.566,0.18-2.358,0.221c0.144,0.251,0.288,0.501,0.432,0.752
				c0.157-0.351,0.329-0.695,0.516-1.032c0.195-0.373-0.125-0.87-0.564-0.734c-0.319,0.098-0.639,0.197-0.958,0.295
				c0.188,0.245,0.376,0.489,0.564,0.734c0.292-0.619,0.612-1.214,0.885-1.842c0.18-0.414-0.108-0.814-0.564-0.734
				c-1.308,0.228-3.129-0.462-4.51-0.534c0.144,0.251,0.288,0.501,0.432,0.752c0.511-1.128,1.107-1.857,0.935-3.112
				c-0.031-0.227-0.281-0.354-0.482-0.367c-0.271-0.037-0.54-0.037-0.811,0C28.332,15.44,28.328,16.441,28.972,16.397L28.972,16.397
				z"/>
		</g>
	</g>
	<g>
		<g>
			<path d="M23.835,20.687c-0.066,0.354-0.092,0.711-0.079,1.072c-0.004,0.207,0.154,0.444,0.367,0.482
				c1.777,0.319,3.344-0.192,5.114-0.365c-0.144-0.251-0.288-0.501-0.432-0.752c-0.803,1.598-2.218,2.411-0.729,4.16
				c0.355,0.417,1.274,0.255,1.713,0.267c1.125,0.029,0.296,1.211,0.136,1.691c-0.306,0.916-0.511,1.858-0.697,2.804
				c-0.077,0.394,0.229,0.683,0.615,0.615c0.996-0.175,1.675-0.917,2.688-1.072c-0.211-0.161-0.422-0.321-0.633-0.482
				c0.026,0.204,0.053,0.408,0.079,0.612c0.033,0.26,0.202,0.514,0.5,0.5c0.226-0.011,0.385-0.038,0.607-0.094
				c-0.211-0.161-0.422-0.321-0.633-0.482c0.065,0.405,0.092,0.813,0.079,1.225c0.004,0.249,0.226,0.53,0.5,0.5
				c1.028-0.114,2.169-1.218,2.109,0.342c-0.024,0.646,0.976,0.643,1,0c0.108-2.829-1.012-1.575-3.109-1.342
				c0.167,0.167,0.333,0.333,0.5,0.5c0.013-0.411-0.014-0.819-0.079-1.225c-0.036-0.323-0.291-0.567-0.633-0.482
				c-0.114,0.02-0.228,0.039-0.342,0.059c0.167,0.167,0.333,0.333,0.5,0.5c-0.026-0.204-0.053-0.408-0.079-0.612
				c-0.045-0.347-0.283-0.536-0.633-0.482c-1.007,0.155-1.696,0.898-2.688,1.072c0.205,0.205,0.41,0.41,0.615,0.615
				c0.327-1.662,0.816-3.242,1.424-4.822c0.073-0.191-0.043-0.479-0.23-0.564c-0.707-0.321-1.353-0.368-2.132-0.388
				c-1.771-0.046,0.11-2.303,0.414-2.908c0.153-0.306-0.026-0.792-0.432-0.752c-1.09,0.106-4.583,1.213-4.402-0.189
				C24.917,20.048,23.917,20.056,23.835,20.687L23.835,20.687z"/>
		</g>
	</g>
	<g>
		<g>
			<path d="M19.703,24.224c0.202,2.033,0.804,3.767,2.843,2.048c-0.262-0.202-0.523-0.404-0.785-0.605
				c-0.123,0.172-0.246,0.344-0.369,0.516c-0.288,0.401,0.185,0.791,0.564,0.734c0.492-0.074,0.983-0.147,1.474-0.221
				c-0.205-0.205-0.41-0.41-0.615-0.615c-0.229,0.938-0.701,1.713-0.884,2.652c-0.063,0.323,0.14,0.622,0.482,0.633
				c0.127,0.019,0.255,0.037,0.383,0.056c-0.117-0.205-0.233-0.41-0.349-0.615c-0.049,0.295-0.099,0.59-0.147,0.885
				c-0.048,0.287,0.129,0.671,0.482,0.633c0.821-0.088,0.828-0.089,1.579-0.437c-0.251-0.144-0.501-0.288-0.752-0.432
				c0,0.393,0,0.786,0,1.179c0,0.333,0.318,0.559,0.633,0.482c0.565-0.095,1.105-0.267,1.621-0.516
				c-0.211-0.161-0.422-0.321-0.633-0.482c-0.047,0.466-0.498,1.51-0.719,2.078c-0.151,0.388,0.281,0.677,0.615,0.615
				c0.728-0.136,1.226-0.444,1.888-0.788c-0.244-0.188-0.489-0.376-0.734-0.564c-0.152,0.672-0.364,1.317-0.517,1.989
				c-0.06,0.264,0.077,0.542,0.35,0.615c0.876,0.233,1.657,0.247,2.565,0.312c-0.167-0.167-0.333-0.333-0.5-0.5
				c0.11,0.955-0.16,1.858-0.222,2.801c-0.022,0.344,0.334,0.543,0.633,0.482c0.524-0.088,1.04-0.211,1.548-0.369
				c-0.211-0.161-0.422-0.321-0.633-0.482c-0.019,0.324-0.037,0.648-0.057,0.973c-0.078,0.467,0.457,0.87,0.836,0.486
				c0.685-0.692,1.257-1.394,2.109-1.911c-0.244-0.188-0.489-0.376-0.734-0.564c-0.338,0.842-0.475,1.526-0.533,2.417
				c-0.019,0.28,0.242,0.489,0.5,0.5c0.749,0.032,1.464-0.006,2.211-0.073c-0.167-0.167-0.333-0.333-0.5-0.5
				c0.033,1.067,0.727,1.52,1.123,2.49c0.241,0.589,1.209,0.331,0.965-0.266c-0.308-0.752-1.062-1.393-1.088-2.225
				c-0.008-0.253-0.223-0.525-0.5-0.5c-0.747,0.067-1.462,0.105-2.211,0.073c0.167,0.167,0.333,0.333,0.5,0.5
				c-0.007-0.764,0.159-1.48,0.498-2.151c0.169-0.421-0.388-0.775-0.734-0.564c-0.92,0.558-1.559,1.304-2.312,2.067
				c0.278,0.162,0.557,0.324,0.836,0.486c0.094-0.562,0.11-0.67,0.092-1.238c-0.011-0.323-0.312-0.57-0.633-0.482
				c-0.508,0.158-1.023,0.281-1.548,0.369c0.211,0.161,0.422,0.321,0.633,0.482c0.066-1.011,0.336-1.809,0.222-2.801
				c-0.033-0.287-0.203-0.479-0.5-0.5c-0.772-0.035-1.539-0.128-2.3-0.277c0.116,0.205,0.233,0.41,0.35,0.615
				c0.152-0.672,0.364-1.317,0.517-1.989c0.099-0.437-0.339-0.77-0.734-0.564c-0.519,0.302-1.068,0.53-1.65,0.687
				c0.205,0.205,0.41,0.41,0.615,0.615c0.323-0.832,0.666-1.462,0.755-2.344c0.03-0.304-0.347-0.597-0.633-0.482
				c-0.516,0.249-1.056,0.421-1.621,0.516c0.211,0.161,0.422,0.321,0.633,0.482c0-0.393,0-0.786,0-1.179
				c0-0.406-0.418-0.587-0.752-0.432c-0.358,0.1-0.716,0.2-1.074,0.3c0.161,0.211,0.321,0.422,0.482,0.633
				c0.049-0.295,0.099-0.59,0.147-0.885c0.045-0.27-0.066-0.536-0.349-0.615c-0.244-0.068-0.392-0.083-0.648-0.091
				c0.161,0.211,0.321,0.422,0.482,0.633c0.183-0.931,0.661-1.736,0.884-2.652c0.098-0.401-0.243-0.671-0.615-0.615
				c-0.492,0.074-0.983,0.147-1.474,0.221c0.188,0.245,0.376,0.49,0.564,0.734c0.123-0.172,0.246-0.344,0.369-0.516
				c0.352-0.492-0.38-0.947-0.785-0.605c-1.245,1.049-1.075-0.729-1.136-1.341C20.64,23.589,19.639,23.583,19.703,24.224
				L19.703,24.224z"/>
		</g>
	</g>
	<g>
		<g>
			<path d="M13.544,29.183c-0.027,0.237-0.054,0.474-0.081,0.711c-0.05,0.444,0.574,0.647,0.854,0.354
				c0.222-0.168,0.444-0.336,0.667-0.503c-0.211-0.161-0.422-0.321-0.633-0.482c-0.048,0.482-0.096,0.966-0.144,1.448
				c-0.098,0.435,0.339,0.773,0.734,0.564c0.677-0.357,1.2-0.864,1.795-1.343c-0.262-0.034-0.523-0.067-0.785-0.102
				c0.053,0.079,0.107,0.158,0.161,0.237c0.154,0.229,0.435,0.32,0.684,0.18c0.441-0.269,0.898-0.506,1.372-0.712
				c-0.251-0.144-0.501-0.288-0.752-0.432c-0.18,1.339-0.297,2.788-0.708,4.058c-0.102,0.314,0.168,0.629,0.482,0.633
				c0.811,0.011,0.732,0.021,1.503-0.176c-0.211-0.161-0.422-0.321-0.633-0.482c0,0.527,0,1.055,0,1.582
				c0,0.351,0.317,0.534,0.633,0.482c0.036-0.006,1.676,0.058,1.949,0.048c0.714-0.026,1.455-0.268,2.165-0.364
				c-0.205-0.116-0.41-0.233-0.615-0.35c0.319,1.185-0.56,2.39-0.583,3.582c-0.006,0.349,0.322,0.537,0.633,0.482
				c0.97-0.173,1.617-0.655,2.459-1.157c-0.251-0.144-0.501-0.288-0.752-0.432c-0.076,1-0.651,1.991-0.95,2.951
				c-0.077,0.245,0.087,0.564,0.349,0.615c0.587,0.114,1.191,0.123,1.774,0.236c0.63,0.122,0.898-0.842,0.266-0.965
				c-0.587-0.113-1.192-0.123-1.774-0.236c0.117,0.205,0.233,0.41,0.349,0.615c0.352-1.132,0.896-2.033,0.986-3.217
				c0.029-0.384-0.445-0.615-0.752-0.432c-0.757,0.451-1.304,0.894-2.22,1.056c0.211,0.161,0.422,0.321,0.633,0.482
				c0.026-1.404,0.928-2.432,0.546-3.848c-0.078-0.289-0.346-0.386-0.615-0.35c-1.375,0.188-2.753,0.092-4.114,0.316
				c0.211,0.161,0.422,0.321,0.633,0.482c0-0.527,0-1.055,0-1.582c0-0.329-0.319-0.562-0.633-0.482
				c-0.413,0.047-0.825,0.094-1.238,0.141c0.161,0.211,0.321,0.422,0.482,0.633c0.483-1.494,0.537-2.784,0.744-4.323
				c0.056-0.413-0.456-0.573-0.752-0.432c-0.473,0.206-0.93,0.443-1.372,0.712c0.228,0.06,0.456,0.119,0.684,0.18
				c-0.053-0.079-0.107-0.158-0.161-0.237c-0.194-0.287-0.524-0.312-0.785-0.102c-0.529,0.425-0.982,0.864-1.593,1.187
				c0.245,0.188,0.49,0.376,0.734,0.564c0.201-0.892,0.191-0.784,0.18-1.714c-0.003-0.293-0.324-0.611-0.633-0.482
				c-0.618,0.258-0.629,0.257-1.108,0.761c0.285,0.118,0.569,0.235,0.854,0.354c0.027-0.237,0.054-0.474,0.081-0.711
				C14.617,28.542,13.616,28.55,13.544,29.183L13.544,29.183z"/>
		</g>
	</g>
</g>
</svg>
